<svg xmlns="http://www.w3.org/2000/svg" xmlns:xlink="http://www.w3.org/1999/xlink" width="50" zoomAndPan="magnify" viewBox="0 0 37.5 37.499999" height="50" preserveAspectRatio="xMidYMid meet" version="1.0"><defs><clipPath id="13d7727ef4"><path d="M 0 6.882812 L 37.007812 6.882812 L 37.007812 30.125 L 0 30.125 Z M 0 6.882812 " clip-rule="nonzero"/></clipPath><clipPath id="20a9a1c705"><path d="M 2.21875 6.882812 L 34.785156 6.882812 C 36.011719 6.882812 37.007812 7.878906 37.007812 9.105469 L 37.007812 27.902344 C 37.007812 29.128906 36.011719 30.125 34.785156 30.125 L 2.21875 30.125 C 0.992188 30.125 0 29.128906 0 27.902344 L 0 9.105469 C 0 7.878906 0.992188 6.882812 2.21875 6.882812 Z M 2.21875 6.882812 " clip-rule="nonzero"/></clipPath><clipPath id="d0fdb050a6"><path d="M 15 9 L 34 9 L 34 28 L 15 28 Z M 15 9 " clip-rule="nonzero"/></clipPath><clipPath id="6fe4356cc9"><path d="M 0 18.503906 C 0 24.921875 5.203125 30.125 11.621094 30.125 L 25.386719 30.125 C 31.804688 30.125 37.007812 24.921875 37.007812 18.503906 C 37.007812 12.085938 31.804688 6.882812 25.386719 6.882812 L 11.621094 6.882812 C 5.203125 6.882812 0 12.085938 0 18.503906 Z M 0 18.503906 " clip-rule="nonzero"/></clipPath><clipPath id="d8ef25ed0e"><path d="M 3 9 L 22 9 L 22 28 L 3 28 Z M 3 9 " clip-rule="nonzero"/></clipPath><clipPath id="c04f2d46eb"><path d="M 0 18.503906 C 0 24.921875 5.203125 30.125 11.621094 30.125 L 25.386719 30.125 C 31.804688 30.125 37.007812 24.921875 37.007812 18.503906 C 37.007812 12.085938 31.804688 6.882812 25.386719 6.882812 L 11.621094 6.882812 C 5.203125 6.882812 0 12.085938 0 18.503906 Z M 0 18.503906 " clip-rule="nonzero"/></clipPath><clipPath id="ceffc83bf0"><path d="M 32 23 L 33 23 L 33 24 L 32 24 Z M 32 23 " clip-rule="nonzero"/></clipPath><clipPath id="990911e848"><path d="M 0 18.503906 C 0 24.921875 5.203125 30.125 11.621094 30.125 L 25.386719 30.125 C 31.804688 30.125 37.007812 24.921875 37.007812 18.503906 C 37.007812 12.085938 31.804688 6.882812 25.386719 6.882812 L 11.621094 6.882812 C 5.203125 6.882812 0 12.085938 0 18.503906 Z M 0 18.503906 " clip-rule="nonzero"/></clipPath><clipPath id="8d3fc738ee"><path d="M 15 17 L 19 17 L 19 21 L 15 21 Z M 15 17 " clip-rule="nonzero"/></clipPath><clipPath id="68ddb438a1"><path d="M 0 18.503906 C 0 24.921875 5.203125 30.125 11.621094 30.125 L 25.386719 30.125 C 31.804688 30.125 37.007812 24.921875 37.007812 18.503906 C 37.007812 12.085938 31.804688 6.882812 25.386719 6.882812 L 11.621094 6.882812 C 5.203125 6.882812 0 12.085938 0 18.503906 Z M 0 18.503906 " clip-rule="nonzero"/></clipPath><clipPath id="c5af5e007c"><path d="M 18 17 L 22 17 L 22 21 L 18 21 Z M 18 17 " clip-rule="nonzero"/></clipPath><clipPath id="b78c96e66d"><path d="M 0 18.503906 C 0 24.921875 5.203125 30.125 11.621094 30.125 L 25.386719 30.125 C 31.804688 30.125 37.007812 24.921875 37.007812 18.503906 C 37.007812 12.085938 31.804688 6.882812 25.386719 6.882812 L 11.621094 6.882812 C 5.203125 6.882812 0 12.085938 0 18.503906 Z M 0 18.503906 " clip-rule="nonzero"/></clipPath><clipPath id="3051219e18"><path d="M 11 17 L 16 17 L 16 21 L 11 21 Z M 11 17 " clip-rule="nonzero"/></clipPath><clipPath id="72ccce7e05"><path d="M 0 18.503906 C 0 24.921875 5.203125 30.125 11.621094 30.125 L 25.386719 30.125 C 31.804688 30.125 37.007812 24.921875 37.007812 18.503906 C 37.007812 12.085938 31.804688 6.882812 25.386719 6.882812 L 11.621094 6.882812 C 5.203125 6.882812 0 12.085938 0 18.503906 Z M 0 18.503906 " clip-rule="nonzero"/></clipPath><clipPath id="9e5ff981d3"><path d="M 21 16 L 24 16 L 24 21 L 21 21 Z M 21 16 " clip-rule="nonzero"/></clipPath><clipPath id="b772ccaded"><path d="M 0 18.503906 C 0 24.921875 5.203125 30.125 11.621094 30.125 L 25.386719 30.125 C 31.804688 30.125 37.007812 24.921875 37.007812 18.503906 C 37.007812 12.085938 31.804688 6.882812 25.386719 6.882812 L 11.621094 6.882812 C 5.203125 6.882812 0 12.085938 0 18.503906 Z M 0 18.503906 " clip-rule="nonzero"/></clipPath><clipPath id="b840390542"><path d="M 23 17 L 31 17 L 31 21 L 23 21 Z M 23 17 " clip-rule="nonzero"/></clipPath><clipPath id="e665684384"><path d="M 0 18.503906 C 0 24.921875 5.203125 30.125 11.621094 30.125 L 25.386719 30.125 C 31.804688 30.125 37.007812 24.921875 37.007812 18.503906 C 37.007812 12.085938 31.804688 6.882812 25.386719 6.882812 L 11.621094 6.882812 C 5.203125 6.882812 0 12.085938 0 18.503906 Z M 0 18.503906 " clip-rule="nonzero"/></clipPath><clipPath id="e401694ff7"><path d="M 6 16 L 13 16 L 13 21 L 6 21 Z M 6 16 " clip-rule="nonzero"/></clipPath><clipPath id="d66b26a734"><path d="M 0 18.503906 C 0 24.921875 5.203125 30.125 11.621094 30.125 L 25.386719 30.125 C 31.804688 30.125 37.007812 24.921875 37.007812 18.503906 C 37.007812 12.085938 31.804688 6.882812 25.386719 6.882812 L 11.621094 6.882812 C 5.203125 6.882812 0 12.085938 0 18.503906 Z M 0 18.503906 " clip-rule="nonzero"/></clipPath><clipPath id="abc4f58889"><path d="M 30 20 L 31 20 L 31 21 L 30 21 Z M 30 20 " clip-rule="nonzero"/></clipPath><clipPath id="a9558b8716"><path d="M 0 18.503906 C 0 24.921875 5.203125 30.125 11.621094 30.125 L 25.386719 30.125 C 31.804688 30.125 37.007812 24.921875 37.007812 18.503906 C 37.007812 12.085938 31.804688 6.882812 25.386719 6.882812 L 11.621094 6.882812 C 5.203125 6.882812 0 12.085938 0 18.503906 Z M 0 18.503906 " clip-rule="nonzero"/></clipPath><clipPath id="510fb3dc93"><path d="M 15 16 L 20 16 L 20 21 L 15 21 Z M 15 16 " clip-rule="nonzero"/></clipPath><clipPath id="c3e0e64995"><path d="M 0 18.503906 C 0 24.921875 5.203125 30.125 11.621094 30.125 L 25.386719 30.125 C 31.804688 30.125 37.007812 24.921875 37.007812 18.503906 C 37.007812 12.085938 31.804688 6.882812 25.386719 6.882812 L 11.621094 6.882812 C 5.203125 6.882812 0 12.085938 0 18.503906 Z M 0 18.503906 " clip-rule="nonzero"/></clipPath><clipPath id="f2045f3ef5"><path d="M 18 16 L 23 16 L 23 21 L 18 21 Z M 18 16 " clip-rule="nonzero"/></clipPath><clipPath id="8164499c8d"><path d="M 0 18.503906 C 0 24.921875 5.203125 30.125 11.621094 30.125 L 25.386719 30.125 C 31.804688 30.125 37.007812 24.921875 37.007812 18.503906 C 37.007812 12.085938 31.804688 6.882812 25.386719 6.882812 L 11.621094 6.882812 C 5.203125 6.882812 0 12.085938 0 18.503906 Z M 0 18.503906 " clip-rule="nonzero"/></clipPath><clipPath id="e03b75b1eb"><path d="M 11 16 L 16 16 L 16 21 L 11 21 Z M 11 16 " clip-rule="nonzero"/></clipPath><clipPath id="c78ae67d97"><path d="M 0 18.503906 C 0 24.921875 5.203125 30.125 11.621094 30.125 L 25.386719 30.125 C 31.804688 30.125 37.007812 24.921875 37.007812 18.503906 C 37.007812 12.085938 31.804688 6.882812 25.386719 6.882812 L 11.621094 6.882812 C 5.203125 6.882812 0 12.085938 0 18.503906 Z M 0 18.503906 " clip-rule="nonzero"/></clipPath><clipPath id="784836e59e"><path d="M 22 16 L 25 16 L 25 21 L 22 21 Z M 22 16 " clip-rule="nonzero"/></clipPath><clipPath id="783e9b32fe"><path d="M 0 18.503906 C 0 24.921875 5.203125 30.125 11.621094 30.125 L 25.386719 30.125 C 31.804688 30.125 37.007812 24.921875 37.007812 18.503906 C 37.007812 12.085938 31.804688 6.882812 25.386719 6.882812 L 11.621094 6.882812 C 5.203125 6.882812 0 12.085938 0 18.503906 Z M 0 18.503906 " clip-rule="nonzero"/></clipPath><clipPath id="32ca65e70e"><path d="M 26 16 L 31 16 L 31 21 L 26 21 Z M 26 16 " clip-rule="nonzero"/></clipPath><clipPath id="0a57d480e9"><path d="M 0 18.503906 C 0 24.921875 5.203125 30.125 11.621094 30.125 L 25.386719 30.125 C 31.804688 30.125 37.007812 24.921875 37.007812 18.503906 C 37.007812 12.085938 31.804688 6.882812 25.386719 6.882812 L 11.621094 6.882812 C 5.203125 6.882812 0 12.085938 0 18.503906 Z M 0 18.503906 " clip-rule="nonzero"/></clipPath><clipPath id="44b022326c"><path d="M 24 16 L 27 16 L 27 21 L 24 21 Z M 24 16 " clip-rule="nonzero"/></clipPath><clipPath id="2155d7476b"><path d="M 0 18.503906 C 0 24.921875 5.203125 30.125 11.621094 30.125 L 25.386719 30.125 C 31.804688 30.125 37.007812 24.921875 37.007812 18.503906 C 37.007812 12.085938 31.804688 6.882812 25.386719 6.882812 L 11.621094 6.882812 C 5.203125 6.882812 0 12.085938 0 18.503906 Z M 0 18.503906 " clip-rule="nonzero"/></clipPath><clipPath id="f6b32f9a3b"><path d="M 6 16 L 13 16 L 13 21 L 6 21 Z M 6 16 " clip-rule="nonzero"/></clipPath><clipPath id="d49bcf65b4"><path d="M 0 18.503906 C 0 24.921875 5.203125 30.125 11.621094 30.125 L 25.386719 30.125 C 31.804688 30.125 37.007812 24.921875 37.007812 18.503906 C 37.007812 12.085938 31.804688 6.882812 25.386719 6.882812 L 11.621094 6.882812 C 5.203125 6.882812 0 12.085938 0 18.503906 Z M 0 18.503906 " clip-rule="nonzero"/></clipPath></defs><g clip-path="url(#13d7727ef4)"><g clip-path="url(#20a9a1c705)"><path fill="#ffffff" d="M 0 6.882812 L 37.039062 6.882812 L 37.039062 30.125 L 0 30.125 Z M 0 6.882812 " fill-opacity="1" fill-rule="nonzero"/></g></g><g clip-path="url(#d0fdb050a6)"><g clip-path="url(#6fe4356cc9)"><path fill="#d9222a" d="M 33.226562 18.445312 C 33.226562 23.328125 29.273438 27.28125 24.394531 27.28125 C 19.511719 27.28125 15.558594 23.328125 15.558594 18.445312 C 15.558594 13.566406 19.511719 9.609375 24.394531 9.609375 C 29.273438 9.609375 33.226562 13.566406 33.226562 18.445312 " fill-opacity="1" fill-rule="nonzero"/></g></g><g clip-path="url(#d8ef25ed0e)"><g clip-path="url(#c04f2d46eb)"><path fill="#0097d0" d="M 17.566406 24.058594 C 17.324219 23.761719 17.097656 23.449219 16.894531 23.121094 L 20.027344 23.121094 C 20.214844 22.820312 20.382812 22.507812 20.535156 22.1875 L 16.386719 22.1875 C 16.246094 21.882812 16.117188 21.570312 16.011719 21.25 L 20.910156 21.25 C 21.203125 20.367188 21.363281 19.425781 21.363281 18.445312 C 21.363281 17.804688 21.292969 17.179688 21.164062 16.574219 L 15.757812 16.574219 C 15.824219 16.257812 15.910156 15.945312 16.011719 15.640625 L 20.90625 15.640625 C 20.800781 15.320312 20.675781 15.007812 20.535156 14.703125 L 16.386719 14.703125 C 16.539062 14.378906 16.707031 14.070312 16.894531 13.769531 L 20.023438 13.769531 C 19.820312 13.441406 19.59375 13.128906 19.351562 12.832031 L 17.570312 12.832031 C 17.84375 12.5 18.140625 12.1875 18.460938 11.898438 C 16.890625 10.476562 14.8125 9.609375 12.527344 9.609375 C 7.648438 9.609375 3.691406 13.566406 3.691406 18.445312 C 3.691406 23.328125 7.648438 27.28125 12.527344 27.28125 C 14.8125 27.28125 16.890625 26.417969 18.460938 24.996094 C 18.78125 24.703125 19.078125 24.390625 19.351562 24.058594 L 17.566406 24.058594 " fill-opacity="1" fill-rule="nonzero"/></g></g><g clip-path="url(#ceffc83bf0)"><g clip-path="url(#990911e848)"><path fill="#000000" d="M 32.050781 23.371094 C 32.050781 23.214844 32.179688 23.085938 32.335938 23.085938 C 32.492188 23.085938 32.621094 23.214844 32.621094 23.371094 C 32.621094 23.527344 32.492188 23.65625 32.335938 23.65625 C 32.179688 23.65625 32.050781 23.527344 32.050781 23.371094 Z M 32.335938 23.585938 C 32.457031 23.585938 32.554688 23.492188 32.554688 23.371094 C 32.554688 23.25 32.457031 23.15625 32.335938 23.15625 C 32.214844 23.15625 32.117188 23.25 32.117188 23.371094 C 32.117188 23.492188 32.214844 23.585938 32.335938 23.585938 Z M 32.296875 23.496094 L 32.238281 23.496094 L 32.238281 23.246094 L 32.34375 23.246094 C 32.367188 23.246094 32.390625 23.246094 32.410156 23.257812 C 32.429688 23.273438 32.441406 23.296875 32.441406 23.320312 C 32.441406 23.347656 32.425781 23.375 32.398438 23.386719 L 32.441406 23.496094 L 32.378906 23.496094 L 32.339844 23.398438 L 32.296875 23.398438 Z M 32.296875 23.355469 L 32.328125 23.355469 C 32.34375 23.355469 32.355469 23.355469 32.367188 23.347656 C 32.375 23.34375 32.378906 23.332031 32.378906 23.320312 C 32.378906 23.3125 32.375 23.300781 32.367188 23.296875 C 32.355469 23.289062 32.339844 23.289062 32.328125 23.289062 L 32.296875 23.289062 Z M 32.296875 23.355469 " fill-opacity="1" fill-rule="nonzero"/></g></g><g clip-path="url(#8d3fc738ee)"><g clip-path="url(#68ddb438a1)"><path fill="#000000" d="M 18.335938 20.832031 C 17.957031 20.933594 17.589844 20.984375 17.207031 20.980469 C 15.972656 20.980469 15.332031 20.417969 15.332031 19.347656 C 15.332031 18.09375 16.148438 17.171875 17.257812 17.171875 C 18.164062 17.171875 18.742188 17.6875 18.742188 18.5 C 18.742188 18.769531 18.703125 19.027344 18.609375 19.398438 L 16.417969 19.398438 C 16.339844 19.921875 16.722656 20.152344 17.375 20.152344 C 17.765625 20.152344 18.117188 20.082031 18.507812 19.925781 Z M 17.746094 18.660156 C 17.746094 18.582031 17.867188 18.019531 17.234375 18.007812 C 16.882812 18.007812 16.632812 18.238281 16.53125 18.660156 Z M 17.746094 18.660156 " fill-opacity="1" fill-rule="nonzero"/></g></g><g clip-path="url(#c5af5e007c)"><g clip-path="url(#b78c96e66d)"><path fill="#000000" d="M 19.078125 18.414062 C 19.078125 18.878906 19.335938 19.199219 19.929688 19.433594 C 20.382812 19.621094 20.453125 19.675781 20.453125 19.839844 C 20.453125 20.070312 20.253906 20.175781 19.808594 20.171875 C 19.476562 20.167969 19.171875 20.128906 18.8125 20.03125 L 18.652344 20.875 C 18.972656 20.949219 19.421875 20.972656 19.816406 20.980469 C 21 20.980469 21.546875 20.59375 21.546875 19.757812 C 21.546875 19.253906 21.316406 18.957031 20.757812 18.738281 C 20.285156 18.550781 20.230469 18.511719 20.230469 18.339844 C 20.230469 18.140625 20.417969 18.039062 20.78125 18.039062 C 21 18.039062 21.300781 18.058594 21.585938 18.09375 L 21.746094 17.246094 C 21.457031 17.207031 21.015625 17.171875 20.757812 17.171875 C 19.507812 17.171875 19.074219 17.738281 19.078125 18.414062 " fill-opacity="1" fill-rule="nonzero"/></g></g><g clip-path="url(#3051219e18)"><g clip-path="url(#72ccce7e05)"><path fill="#000000" d="M 14.734375 20.921875 L 13.8125 20.921875 L 13.835938 20.535156 C 13.554688 20.839844 13.183594 20.980469 12.675781 20.980469 C 12.078125 20.980469 11.664062 20.570312 11.664062 19.980469 C 11.664062 19.085938 12.378906 18.570312 13.605469 18.570312 C 13.734375 18.570312 13.894531 18.578125 14.058594 18.597656 C 14.09375 18.476562 14.101562 18.425781 14.101562 18.359375 C 14.101562 18.117188 13.910156 18.027344 13.390625 18.027344 C 12.882812 18.027344 12.539062 18.101562 12.21875 18.1875 L 12.378906 17.367188 C 12.929688 17.226562 13.289062 17.171875 13.699219 17.171875 C 14.648438 17.171875 15.148438 17.546875 15.148438 18.246094 C 15.160156 18.433594 15.09375 18.808594 15.0625 18.972656 C 15.023438 19.210938 14.761719 20.59375 14.734375 20.921875 Z M 13.925781 19.289062 C 13.808594 19.277344 13.757812 19.273438 13.679688 19.273438 C 13.054688 19.273438 12.734375 19.457031 12.734375 19.828125 C 12.734375 20.058594 12.890625 20.203125 13.132812 20.203125 C 13.582031 20.203125 13.90625 19.824219 13.925781 19.289062 Z M 13.925781 19.289062 " fill-opacity="1" fill-rule="nonzero"/></g></g><g clip-path="url(#9e5ff981d3)"><g clip-path="url(#b772ccaded)"><path fill="#000000" d="M 23.480469 20.863281 C 23.179688 20.945312 22.945312 20.980469 22.691406 20.980469 C 22.128906 20.980469 21.820312 20.695312 21.820312 20.183594 C 21.804688 20.042969 21.941406 19.390625 21.972656 19.210938 C 22.003906 19.027344 22.492188 16.378906 22.492188 16.378906 L 23.585938 16.378906 L 23.417969 17.257812 L 23.980469 17.257812 L 23.828125 18.152344 L 23.265625 18.152344 C 23.265625 18.152344 22.953125 19.703125 22.953125 19.820312 C 22.953125 20.007812 23.070312 20.089844 23.332031 20.089844 C 23.457031 20.089844 23.550781 20.078125 23.628906 20.058594 L 23.480469 20.863281 " fill-opacity="1" fill-rule="nonzero"/></g></g><g clip-path="url(#b840390542)"><g clip-path="url(#e665684384)"><path fill="#000000" d="M 28.367188 17.171875 C 27.566406 17.171875 26.941406 17.503906 26.574219 18.054688 L 26.890625 17.234375 C 26.308594 17.023438 25.933594 17.328125 25.59375 17.761719 C 25.59375 17.761719 25.539062 17.832031 25.480469 17.898438 L 25.480469 17.257812 L 24.457031 17.257812 C 24.316406 18.390625 24.070312 19.539062 23.878906 20.675781 L 23.832031 20.921875 L 24.9375 20.921875 C 25.042969 20.34375 25.128906 19.878906 25.214844 19.503906 C 25.449219 18.480469 25.84375 18.167969 26.433594 18.308594 C 26.296875 18.601562 26.222656 18.941406 26.222656 19.320312 C 26.222656 20.234375 26.71875 20.980469 27.953125 20.980469 C 29.199219 20.980469 30.101562 20.316406 30.101562 18.800781 C 30.101562 17.886719 29.5 17.171875 28.367188 17.171875 Z M 28.046875 20.09375 C 27.65625 20.097656 27.417969 19.769531 27.417969 19.28125 C 27.417969 18.699219 27.765625 18.046875 28.320312 18.046875 C 28.765625 18.046875 28.917969 18.398438 28.917969 18.777344 C 28.917969 19.605469 28.582031 20.09375 28.046875 20.09375 Z M 28.046875 20.09375 " fill-opacity="1" fill-rule="nonzero"/></g></g><g clip-path="url(#e401694ff7)"><g clip-path="url(#d66b26a734)"><path fill="#000000" d="M 11.152344 20.921875 L 10.050781 20.921875 L 10.707031 17.476562 L 9.199219 20.921875 L 8.199219 20.921875 L 8.015625 17.496094 L 7.359375 20.921875 L 6.359375 20.921875 L 7.210938 16.441406 L 8.929688 16.441406 L 9.074219 18.9375 L 10.160156 16.441406 L 12.019531 16.441406 L 11.152344 20.921875 " fill-opacity="1" fill-rule="nonzero"/></g></g><g clip-path="url(#abc4f58889)"><g clip-path="url(#a9558b8716)"><path fill="#ffffff" d="M 30.183594 20.359375 C 30.183594 20.203125 30.3125 20.074219 30.46875 20.074219 C 30.625 20.074219 30.753906 20.203125 30.753906 20.359375 C 30.753906 20.519531 30.625 20.644531 30.46875 20.644531 C 30.3125 20.644531 30.183594 20.519531 30.183594 20.359375 Z M 30.46875 20.578125 C 30.589844 20.578125 30.6875 20.480469 30.6875 20.359375 C 30.6875 20.242188 30.589844 20.144531 30.46875 20.144531 C 30.347656 20.144531 30.253906 20.242188 30.253906 20.359375 C 30.25 20.480469 30.347656 20.578125 30.46875 20.578125 Z M 30.429688 20.484375 L 30.371094 20.484375 L 30.371094 20.234375 L 30.476562 20.234375 C 30.5 20.234375 30.523438 20.234375 30.542969 20.246094 C 30.5625 20.261719 30.574219 20.285156 30.574219 20.308594 C 30.574219 20.339844 30.558594 20.363281 30.53125 20.375 L 30.578125 20.484375 L 30.511719 20.484375 L 30.472656 20.386719 L 30.429688 20.386719 Z M 30.429688 20.34375 L 30.460938 20.34375 C 30.476562 20.34375 30.488281 20.34375 30.5 20.339844 C 30.507812 20.332031 30.511719 20.320312 30.511719 20.308594 C 30.511719 20.300781 30.507812 20.289062 30.5 20.285156 C 30.488281 20.277344 30.472656 20.28125 30.460938 20.28125 L 30.429688 20.28125 Z M 30.429688 20.34375 " fill-opacity="1" fill-rule="nonzero"/></g></g><g clip-path="url(#510fb3dc93)"><g clip-path="url(#c3e0e64995)"><path fill="#ffffff" d="M 18.609375 20.558594 C 18.234375 20.65625 17.867188 20.707031 17.480469 20.707031 C 16.25 20.703125 15.609375 20.144531 15.609375 19.070312 C 15.609375 17.816406 16.425781 16.894531 17.535156 16.894531 C 18.441406 16.894531 19.019531 17.414062 19.019531 18.222656 C 19.019531 18.492188 18.980469 18.753906 18.882812 19.125 L 16.695312 19.125 C 16.617188 19.648438 17 19.878906 17.648438 19.878906 C 18.039062 19.878906 18.390625 19.808594 18.785156 19.648438 Z M 18.023438 18.382812 C 18.023438 18.304688 18.144531 17.742188 17.507812 17.730469 C 17.160156 17.730469 16.910156 17.964844 16.808594 18.382812 Z M 18.023438 18.382812 " fill-opacity="1" fill-rule="nonzero"/></g></g><g clip-path="url(#f2045f3ef5)"><g clip-path="url(#8164499c8d)"><path fill="#ffffff" d="M 19.351562 18.136719 C 19.351562 18.601562 19.613281 18.921875 20.207031 19.160156 C 20.660156 19.34375 20.730469 19.398438 20.730469 19.5625 C 20.730469 19.792969 20.53125 19.898438 20.085938 19.894531 C 19.75 19.894531 19.445312 19.851562 19.089844 19.753906 L 18.929688 20.597656 C 19.25 20.671875 19.695312 20.695312 20.09375 20.707031 C 21.277344 20.707031 21.820312 20.320312 21.820312 19.480469 C 21.820312 18.980469 21.59375 18.683594 21.03125 18.460938 C 20.5625 18.273438 20.507812 18.234375 20.507812 18.0625 C 20.507812 17.863281 20.695312 17.765625 21.054688 17.765625 C 21.277344 17.765625 21.578125 17.785156 21.863281 17.820312 L 22.023438 16.96875 C 21.730469 16.929688 21.289062 16.898438 21.035156 16.898438 C 19.78125 16.898438 19.347656 17.460938 19.351562 18.136719 " fill-opacity="1" fill-rule="nonzero"/></g></g><g clip-path="url(#e03b75b1eb)"><g clip-path="url(#c78ae67d97)"><path fill="#ffffff" d="M 15.007812 20.644531 L 14.089844 20.644531 L 14.113281 20.261719 C 13.832031 20.5625 13.457031 20.707031 12.953125 20.707031 C 12.351562 20.707031 11.941406 20.296875 11.941406 19.707031 C 11.941406 18.808594 12.65625 18.292969 13.882812 18.292969 C 14.007812 18.292969 14.167969 18.304688 14.335938 18.320312 C 14.367188 18.203125 14.378906 18.152344 14.378906 18.085938 C 14.378906 17.839844 14.183594 17.75 13.667969 17.75 C 13.160156 17.75 12.816406 17.828125 12.496094 17.914062 L 12.652344 17.089844 C 13.203125 16.949219 13.566406 16.894531 13.972656 16.894531 C 14.925781 16.894531 15.425781 17.269531 15.425781 17.96875 C 15.433594 18.15625 15.371094 18.53125 15.335938 18.695312 C 15.300781 18.933594 15.035156 20.320312 15.007812 20.644531 Z M 14.203125 19.011719 C 14.085938 19 14.035156 18.996094 13.957031 18.996094 C 13.328125 18.996094 13.011719 19.183594 13.011719 19.550781 C 13.011719 19.78125 13.167969 19.925781 13.40625 19.925781 C 13.859375 19.925781 14.183594 19.550781 14.203125 19.011719 Z M 14.203125 19.011719 " fill-opacity="1" fill-rule="nonzero"/></g></g><g clip-path="url(#784836e59e)"><g clip-path="url(#783e9b32fe)"><path fill="#ffffff" d="M 23.757812 20.585938 C 23.457031 20.667969 23.222656 20.707031 22.96875 20.707031 C 22.402344 20.707031 22.097656 20.417969 22.097656 19.90625 C 22.078125 19.765625 22.21875 19.117188 22.246094 18.933594 C 22.277344 18.753906 22.765625 16.105469 22.765625 16.105469 L 23.859375 16.105469 L 23.695312 16.980469 L 24.253906 16.980469 L 24.101562 17.875 L 23.539062 17.875 C 23.539062 17.875 23.230469 19.425781 23.230469 19.546875 C 23.230469 19.734375 23.34375 19.816406 23.605469 19.816406 C 23.730469 19.816406 23.828125 19.804688 23.902344 19.78125 L 23.757812 20.585938 " fill-opacity="1" fill-rule="nonzero"/></g></g><g clip-path="url(#32ca65e70e)"><g clip-path="url(#0a57d480e9)"><path fill="#ffffff" d="M 29.195312 18.5 C 29.195312 19.328125 28.855469 19.816406 28.320312 19.816406 C 27.933594 19.820312 27.695312 19.496094 27.695312 19.003906 C 27.695312 18.425781 28.039062 17.769531 28.59375 17.769531 C 29.042969 17.769531 29.195312 18.125 29.195312 18.5 Z M 30.375 18.523438 C 30.375 17.609375 29.773438 16.894531 28.644531 16.894531 C 27.339844 16.894531 26.5 17.765625 26.5 19.042969 C 26.5 19.957031 26.996094 20.707031 28.230469 20.707031 C 29.476562 20.707031 30.375 20.039062 30.375 18.523438 Z M 30.375 18.523438 " fill-opacity="1" fill-rule="nonzero"/></g></g><g clip-path="url(#44b022326c)"><g clip-path="url(#2155d7476b)"><path fill="#ffffff" d="M 24.730469 16.980469 C 24.59375 18.113281 24.347656 19.261719 24.15625 20.398438 L 24.109375 20.644531 L 25.210938 20.644531 C 25.609375 18.453125 25.742188 17.828125 26.578125 18.046875 L 26.980469 17.007812 C 26.398438 16.796875 26.023438 17.101562 25.683594 17.535156 C 25.714844 17.339844 25.773438 17.152344 25.757812 16.980469 L 24.730469 16.980469 " fill-opacity="1" fill-rule="nonzero"/></g></g><g clip-path="url(#f6b32f9a3b)"><g clip-path="url(#d49bcf65b4)"><path fill="#ffffff" d="M 11.425781 20.644531 L 10.328125 20.644531 L 10.980469 17.203125 L 9.476562 20.644531 L 8.472656 20.644531 L 8.289062 17.222656 L 7.632812 20.644531 L 6.636719 20.644531 L 7.488281 16.167969 L 9.207031 16.167969 L 9.296875 18.9375 L 10.507812 16.167969 L 12.292969 16.167969 L 11.425781 20.644531 " fill-opacity="1" fill-rule="nonzero"/></g></g></svg>