<svg xmlns="http://www.w3.org/2000/svg" xmlns:xlink="http://www.w3.org/1999/xlink" width="50" zoomAndPan="magnify" viewBox="0 0 37.5 37.499999" height="50" preserveAspectRatio="xMidYMid meet" version="1.0"><defs><clipPath id="b0d61e6ca2"><path d="M 0 6.882812 L 37.007812 6.882812 L 37.007812 30.125 L 0 30.125 Z M 0 6.882812 " clip-rule="nonzero"/></clipPath><clipPath id="56684db165"><path d="M 2.21875 6.882812 L 34.785156 6.882812 C 36.011719 6.882812 37.007812 7.878906 37.007812 9.105469 L 37.007812 27.902344 C 37.007812 29.128906 36.011719 30.125 34.785156 30.125 L 2.21875 30.125 C 0.992188 30.125 0 29.128906 0 27.902344 L 0 9.105469 C 0 7.878906 0.992188 6.882812 2.21875 6.882812 Z M 2.21875 6.882812 " clip-rule="nonzero"/></clipPath><clipPath id="bbfbe2ffcf"><path d="M 2.726562 7.59375 L 34.613281 7.59375 L 34.613281 29.410156 L 2.726562 29.410156 Z M 2.726562 7.59375 " clip-rule="nonzero"/></clipPath></defs><g clip-path="url(#b0d61e6ca2)"><g clip-path="url(#56684db165)"><path fill="#ffffff" d="M 0 6.882812 L 37.039062 6.882812 L 37.039062 30.125 L 0 30.125 Z M 0 6.882812 " fill-opacity="1" fill-rule="nonzero"/></g></g><g clip-path="url(#bbfbe2ffcf)"><path stroke-linecap="butt" transform="matrix(0.723362, 0, 0, 0.723362, -2.474218, 4.036046)" fill-opacity="1" fill="#ffffff" fill-rule="nonzero" stroke-linejoin="miter" d="M 3.998255 0.500982 L 53.998053 0.500982 C 54.462464 0.500982 54.910675 0.587384 55.337285 0.765588 C 55.769295 0.943793 56.147304 1.197599 56.476712 1.527007 C 56.80072 1.851014 57.054526 2.234424 57.23273 2.661034 C 57.410935 3.087644 57.497337 3.535855 57.497337 4.000266 L 57.497337 36.001432 C 57.497337 36.465844 57.410935 36.908654 57.23273 37.340664 C 57.054526 37.767275 56.80072 38.145284 56.476712 38.474692 C 56.147304 38.8041 55.769295 39.057906 55.337285 39.23611 C 54.910675 39.408914 54.462464 39.500716 53.998053 39.500716 L 3.998255 39.500716 C 3.533844 39.500716 3.091034 39.408914 2.659023 39.23611 C 2.232413 39.057906 1.854404 38.8041 1.524996 38.474692 C 1.195588 38.145284 0.941782 37.767275 0.768978 37.340664 C 0.590774 36.908654 0.498972 36.465844 0.498972 36.001432 L 0.498972 4.000266 C 0.498972 3.535855 0.590774 3.087644 0.768978 2.661034 C 0.941782 2.234424 1.195588 1.851014 1.524996 1.527007 C 1.854404 1.197599 2.232413 0.943793 2.659023 0.765588 C 3.091034 0.587384 3.533844 0.500982 3.998255 0.500982 Z M 3.998255 0.500982 " stroke="#f3f3f3" stroke-width="1" stroke-opacity="1" stroke-miterlimit="4"/></g><path fill="#231f20" d="M 12.894531 26.382812 L 12.894531 28.519531 L 12.429688 28.519531 L 12.429688 28.257812 C 12.28125 28.449219 12.054688 28.570312 11.75 28.570312 C 11.144531 28.570312 10.671875 28.101562 10.671875 27.449219 C 10.671875 26.796875 11.144531 26.328125 11.75 26.328125 C 12.054688 26.328125 12.28125 26.449219 12.429688 26.640625 L 12.429688 26.382812 Z M 11.804688 26.765625 C 11.402344 26.765625 11.152344 27.074219 11.152344 27.449219 C 11.152344 27.824219 11.402344 28.132812 11.804688 28.132812 C 12.195312 28.132812 12.453125 27.839844 12.453125 27.449219 C 12.453125 27.0625 12.195312 26.765625 11.804688 26.765625 Z M 28.71875 27.449219 C 28.71875 27.074219 28.96875 26.765625 29.371094 26.765625 C 29.761719 26.765625 30.019531 27.0625 30.019531 27.449219 C 30.019531 27.839844 29.761719 28.132812 29.371094 28.132812 C 28.96875 28.132812 28.71875 27.824219 28.71875 27.449219 Z M 30.464844 25.523438 L 30.464844 28.519531 L 29.996094 28.519531 L 29.996094 28.257812 C 29.847656 28.449219 29.621094 28.570312 29.3125 28.570312 C 28.710938 28.570312 28.238281 28.101562 28.238281 27.449219 C 28.238281 26.796875 28.710938 26.328125 29.3125 26.328125 C 29.621094 26.328125 29.847656 26.449219 29.996094 26.640625 L 29.996094 25.523438 Z M 18.707031 26.742188 C 19.011719 26.742188 19.203125 26.929688 19.253906 27.261719 L 18.136719 27.261719 C 18.1875 26.953125 18.375 26.742188 18.707031 26.742188 Z M 17.644531 27.449219 C 17.644531 26.785156 18.085938 26.328125 18.71875 26.328125 C 19.320312 26.328125 19.734375 26.785156 19.742188 27.449219 C 19.742188 27.511719 19.734375 27.570312 19.730469 27.628906 L 18.132812 27.628906 C 18.199219 28.011719 18.472656 28.152344 18.777344 28.152344 C 18.992188 28.152344 19.222656 28.070312 19.402344 27.929688 L 19.632812 28.273438 C 19.371094 28.492188 19.074219 28.570312 18.75 28.570312 C 18.105469 28.570312 17.644531 28.128906 17.644531 27.449219 Z M 24.371094 27.449219 C 24.371094 27.074219 24.621094 26.765625 25.023438 26.765625 C 25.414062 26.765625 25.671875 27.0625 25.671875 27.449219 C 25.671875 27.839844 25.414062 28.132812 25.023438 28.132812 C 24.621094 28.132812 24.371094 27.824219 24.371094 27.449219 Z M 26.113281 26.382812 L 26.113281 28.519531 L 25.648438 28.519531 L 25.648438 28.257812 C 25.496094 28.449219 25.273438 28.570312 24.964844 28.570312 C 24.363281 28.570312 23.890625 28.101562 23.890625 27.449219 C 23.890625 26.796875 24.363281 26.328125 24.964844 26.328125 C 25.273438 26.328125 25.496094 26.449219 25.648438 26.640625 L 25.648438 26.382812 Z M 21.726562 27.449219 C 21.726562 28.097656 22.183594 28.570312 22.875 28.570312 C 23.199219 28.570312 23.417969 28.5 23.652344 28.316406 L 23.425781 27.941406 C 23.25 28.066406 23.066406 28.132812 22.863281 28.132812 C 22.488281 28.128906 22.214844 27.859375 22.214844 27.449219 C 22.214844 27.039062 22.488281 26.769531 22.863281 26.765625 C 23.066406 26.765625 23.25 26.832031 23.425781 26.957031 L 23.652344 26.582031 C 23.417969 26.398438 23.199219 26.328125 22.875 26.328125 C 22.183594 26.328125 21.726562 26.800781 21.726562 27.449219 Z M 27.195312 26.640625 C 27.316406 26.453125 27.492188 26.328125 27.765625 26.328125 C 27.859375 26.328125 27.996094 26.34375 28.097656 26.386719 L 27.953125 26.824219 C 27.855469 26.785156 27.753906 26.769531 27.660156 26.769531 C 27.355469 26.769531 27.199219 26.964844 27.199219 27.320312 L 27.199219 28.519531 L 26.730469 28.519531 L 26.730469 26.382812 L 27.195312 26.382812 Z M 15.210938 26.550781 C 14.988281 26.402344 14.675781 26.328125 14.335938 26.328125 C 13.789062 26.328125 13.4375 26.585938 13.4375 27.011719 C 13.4375 27.359375 13.699219 27.574219 14.179688 27.640625 L 14.402344 27.671875 C 14.660156 27.707031 14.78125 27.777344 14.78125 27.898438 C 14.78125 28.0625 14.609375 28.15625 14.289062 28.15625 C 13.964844 28.15625 13.730469 28.054688 13.574219 27.933594 L 13.351562 28.292969 C 13.609375 28.480469 13.933594 28.570312 14.285156 28.570312 C 14.90625 28.570312 15.265625 28.28125 15.265625 27.875 C 15.265625 27.5 14.984375 27.300781 14.515625 27.234375 L 14.292969 27.203125 C 14.089844 27.175781 13.929688 27.136719 13.929688 26.992188 C 13.929688 26.835938 14.082031 26.742188 14.339844 26.742188 C 14.613281 26.742188 14.878906 26.847656 15.007812 26.925781 Z M 20.6875 26.640625 C 20.808594 26.453125 20.984375 26.328125 21.253906 26.328125 C 21.347656 26.328125 21.484375 26.34375 21.585938 26.386719 L 21.441406 26.824219 C 21.34375 26.785156 21.246094 26.769531 21.148438 26.769531 C 20.84375 26.769531 20.691406 26.964844 20.691406 27.320312 L 20.691406 28.519531 L 20.222656 28.519531 L 20.222656 26.382812 L 20.6875 26.382812 Z M 17.257812 26.382812 L 16.492188 26.382812 L 16.492188 25.734375 L 16.019531 25.734375 L 16.019531 26.382812 L 15.582031 26.382812 L 15.582031 26.804688 L 16.019531 26.804688 L 16.019531 27.78125 C 16.019531 28.277344 16.210938 28.570312 16.765625 28.570312 C 16.96875 28.570312 17.203125 28.507812 17.351562 28.40625 L 17.21875 28.007812 C 17.078125 28.089844 16.925781 28.128906 16.800781 28.128906 C 16.570312 28.128906 16.492188 27.984375 16.492188 27.769531 L 16.492188 26.804688 L 17.257812 26.804688 Z M 10.257812 27.175781 L 10.257812 28.519531 L 9.785156 28.519531 L 9.785156 27.328125 C 9.785156 26.964844 9.628906 26.765625 9.308594 26.765625 C 9 26.765625 8.785156 26.960938 8.785156 27.332031 L 8.785156 28.519531 L 8.308594 28.519531 L 8.308594 27.328125 C 8.308594 26.964844 8.152344 26.765625 7.84375 26.765625 C 7.523438 26.765625 7.3125 26.960938 7.3125 27.332031 L 7.3125 28.519531 L 6.839844 28.519531 L 6.839844 26.382812 L 7.308594 26.382812 L 7.308594 26.644531 C 7.484375 26.394531 7.710938 26.328125 7.941406 26.328125 C 8.269531 26.328125 8.503906 26.46875 8.652344 26.707031 C 8.851562 26.40625 9.132812 26.324219 9.410156 26.328125 C 9.933594 26.332031 10.257812 26.671875 10.257812 27.175781 Z M 10.257812 27.175781 " fill-opacity="1" fill-rule="evenodd"/><path fill="#ff5f00" d="M 15.058594 10.097656 L 22.152344 10.097656 L 22.152344 22.75 L 15.058594 22.75 Z M 15.058594 10.097656 " fill-opacity="1" fill-rule="nonzero"/><path fill="#eb001b" d="M 15.507812 16.425781 C 15.507812 13.855469 16.71875 11.570312 18.605469 10.097656 C 17.226562 9.019531 15.484375 8.375 13.59375 8.375 C 9.113281 8.375 5.484375 11.980469 5.484375 16.425781 C 5.484375 20.867188 9.113281 24.472656 13.59375 24.472656 C 15.484375 24.472656 17.226562 23.828125 18.605469 22.75 C 16.71875 21.277344 15.507812 18.992188 15.507812 16.425781 " fill-opacity="1" fill-rule="nonzero"/><path fill="#f79e1b" d="M 31.726562 16.425781 C 31.726562 20.867188 28.097656 24.472656 23.617188 24.472656 C 21.726562 24.472656 19.984375 23.828125 18.605469 22.75 C 20.492188 21.277344 21.703125 18.992188 21.703125 16.425781 C 21.703125 13.855469 20.492188 11.570312 18.605469 10.097656 C 19.984375 9.019531 21.726562 8.375 23.617188 8.375 C 28.097656 8.375 31.726562 11.980469 31.726562 16.425781 " fill-opacity="1" fill-rule="nonzero"/></svg>