<svg xmlns="http://www.w3.org/2000/svg" xmlns:xlink="http://www.w3.org/1999/xlink" width="50" zoomAndPan="magnify" viewBox="0 0 37.5 37.499999" height="50" preserveAspectRatio="xMidYMid meet" version="1.0"><defs><clipPath id="2dfc522f36"><path d="M 0 6.882812 L 37.007812 6.882812 L 37.007812 30.125 L 0 30.125 Z M 0 6.882812 " clip-rule="nonzero"/></clipPath><clipPath id="be16105ceb"><path d="M 2.21875 6.882812 L 34.785156 6.882812 C 36.011719 6.882812 37.007812 7.878906 37.007812 9.105469 L 37.007812 27.902344 C 37.007812 29.128906 36.011719 30.125 34.785156 30.125 L 2.21875 30.125 C 0.992188 30.125 0 29.128906 0 27.902344 L 0 9.105469 C 0 7.878906 0.992188 6.882812 2.21875 6.882812 Z M 2.21875 6.882812 " clip-rule="nonzero"/></clipPath><clipPath id="85c51e7653"><path d="M 0.882812 8.601562 L 36.125 8.601562 L 36.125 27.0625 L 0.882812 27.0625 Z M 0.882812 8.601562 " clip-rule="nonzero"/></clipPath></defs><g clip-path="url(#2dfc522f36)"><g clip-path="url(#be16105ceb)"><path fill="#ffffff" d="M 0 6.882812 L 37.039062 6.882812 L 37.039062 30.125 L 0 30.125 Z M 0 6.882812 " fill-opacity="1" fill-rule="nonzero"/></g></g><g clip-path="url(#85c51e7653)"><path stroke-linecap="butt" transform="matrix(0.723362, 0, 0, 0.723362, -2.474218, 4.036041)" fill-opacity="1" fill="#ffffff" fill-rule="nonzero" stroke-linejoin="miter" d="M 3.998255 0.500988 L 53.998053 0.500988 C 54.462464 0.500988 54.910675 0.58739 55.337285 0.765595 C 55.769295 0.943799 56.147304 1.197605 56.476712 1.527013 C 56.80072 1.851021 57.054526 2.23443 57.23273 2.66104 C 57.410935 3.08765 57.497337 3.535861 57.497337 4.000272 L 57.497337 36.001439 C 57.497337 36.46585 57.410935 36.90866 57.23273 37.340671 C 57.054526 37.767281 56.80072 38.14529 56.476712 38.474698 C 56.147304 38.804106 55.769295 39.057912 55.337285 39.236116 C 54.910675 39.40892 54.462464 39.500722 53.998053 39.500722 L 3.998255 39.500722 C 3.533844 39.500722 3.091034 39.40892 2.659023 39.236116 C 2.232413 39.057912 1.854404 38.804106 1.524996 38.474698 C 1.195588 38.14529 0.941782 37.767281 0.768978 37.340671 C 0.590774 36.90866 0.498972 36.46585 0.498972 36.001439 L 0.498972 4.000272 C 0.498972 3.535861 0.590774 3.08765 0.768978 2.66104 C 0.941782 2.23443 1.195588 1.851021 1.524996 1.527013 C 1.854404 1.197605 2.232413 0.943799 2.659023 0.765595 C 3.091034 0.58739 3.533844 0.500988 3.998255 0.500988 Z M 3.998255 0.500988 " stroke="#f3f3f3" stroke-width="1" stroke-opacity="1" stroke-miterlimit="4"/></g><path fill="#15195a" d="M 16.152344 23.878906 L 13.359375 23.878906 L 15.105469 13.753906 L 17.902344 13.753906 Z M 16.152344 23.878906 " fill-opacity="1" fill-rule="nonzero"/><path fill="#15195a" d="M 26.28125 14 C 25.726562 13.796875 24.855469 13.570312 23.773438 13.570312 C 21.015625 13.570312 19.074219 14.949219 19.0625 16.917969 C 19.039062 18.375 20.453125 19.183594 21.507812 19.667969 C 22.589844 20.164062 22.957031 20.484375 22.957031 20.929688 C 22.945312 21.605469 22.085938 21.917969 21.28125 21.917969 C 20.164062 21.917969 19.566406 21.757812 18.660156 21.378906 L 18.292969 21.21875 L 17.898438 23.492188 C 18.554688 23.773438 19.761719 24.019531 21.015625 24.03125 C 23.945312 24.03125 25.855469 22.671875 25.878906 20.574219 C 25.886719 19.417969 25.140625 18.535156 23.53125 17.8125 C 22.554688 17.351562 21.957031 17.039062 21.957031 16.5625 C 21.96875 16.132812 22.464844 15.691406 23.566406 15.691406 C 24.472656 15.671875 25.140625 15.875 25.648438 16.078125 L 25.898438 16.1875 Z M 26.28125 14 " fill-opacity="1" fill-rule="nonzero"/><path fill="#15195a" d="M 31.277344 13.753906 L 33.441406 13.753906 L 35.691406 23.878906 L 33.105469 23.878906 C 33.105469 23.878906 32.855469 22.714844 32.773438 22.359375 L 29.1875 22.359375 C 29.082031 22.628906 28.601562 23.878906 28.601562 23.878906 L 25.671875 23.878906 L 29.820312 14.59375 C 30.105469 13.9375 30.613281 13.753906 31.277344 13.753906 Z M 31.105469 17.457031 C 31.105469 17.457031 30.222656 19.710938 29.992188 20.292969 L 32.3125 20.292969 C 32.199219 19.785156 31.667969 17.363281 31.667969 17.363281 L 31.472656 16.488281 C 31.390625 16.714844 31.273438 17.023438 31.191406 17.230469 C 31.140625 17.371094 31.101562 17.46875 31.105469 17.457031 Z M 31.105469 17.457031 " fill-opacity="1" fill-rule="evenodd"/><path fill="#15195a" d="M 1.257812 13.753906 L 5.75 13.753906 C 6.359375 13.773438 6.855469 13.957031 7.015625 14.605469 L 7.992188 19.257812 L 8.292969 20.660156 L 11.027344 13.753906 L 13.980469 13.753906 L 9.589844 23.871094 L 6.636719 23.871094 L 4.148438 15.070312 C 3.289062 14.597656 2.308594 14.21875 1.210938 13.957031 Z M 1.257812 13.753906 " fill-opacity="1" fill-rule="evenodd"/></svg>